<?xml version="1.0" standalone="no"?>
<!DOCTYPE svg PUBLIC "-//W3C//DTD SVG 20010904//EN"
 "http://www.w3.org/TR/2001/REC-SVG-20010904/DTD/svg10.dtd">
<svg version="1.0" xmlns="http://www.w3.org/2000/svg"
 width="500.000000pt" height="500.000000pt" viewBox="0 0 500.000000 500.000000"
 preserveAspectRatio="xMidYMid meet">
<metadata>
Created by potrace 1.16, written by Peter Selinger 2001-2019
</metadata>
<g transform="translate(0.000000,500.000000) scale(0.100000,-0.100000)"
fill="#000000" stroke="none">
<path d="M1392 4153 c-35 -34 -40 -45 -47 -100 -4 -35 -4 -86 0 -115 24 -193
188 -488 337 -608 72 -58 169 -107 256 -130 51 -13 62 -19 47 -25 -125 -46
-209 -115 -250 -207 -89 -197 7 -401 217 -462 69 -20 92 -20 164 -1 155 40
253 132 363 339 l31 59 0 216 -1 216 -28 55 c-15 30 -36 71 -46 90 -74 140
-266 358 -411 467 -16 12 -51 38 -77 58 -58 43 -229 134 -310 164 -40 14 -81
21 -132 21 -72 0 -75 -1 -113 -37z m179 -79 c81 -24 233 -104 334 -175 116
-82 313 -279 394 -394 82 -116 156 -265 131 -265 -11 0 -23 17 -88 118 -31 50
-75 112 -96 139 -55 67 -187 196 -279 273 -43 36 -83 70 -90 75 -57 49 -264
162 -343 189 -62 21 -78 31 -70 45 10 15 43 14 107 -5z m-16 -137 c158 -62
296 -144 350 -209 15 -18 45 -44 68 -58 64 -41 244 -217 281 -274 18 -28 46
-75 64 -103 l31 -53 -31 0 c-20 0 -41 9 -57 24 -15 14 -61 43 -103 65 -42 22
-92 51 -112 64 -46 32 -214 103 -346 147 -91 30 -108 40 -128 70 -13 19 -19
36 -13 38 15 5 148 -37 251 -80 158 -66 231 -105 310 -165 118 -89 159 -105
104 -40 -16 19 -36 43 -45 53 -24 29 -69 66 -124 103 -27 19 -60 43 -73 55
-13 11 -42 25 -65 32 -23 6 -73 24 -112 39 -38 15 -110 38 -160 52 -136 38
-142 41 -158 81 -8 21 -14 38 -12 40 2 2 20 -4 41 -13 65 -28 177 -62 221 -69
23 -3 48 -9 57 -12 35 -13 14 23 -32 53 -43 29 -94 52 -242 105 -70 25 -80 34
-80 70 0 25 3 29 18 24 9 -4 53 -21 97 -39z m251 -503 c112 -36 374 -167 362
-179 -2 -3 -33 0 -68 6 -141 22 -295 92 -390 177 -24 21 -24 22 -4 22 12 0 57
-12 100 -26z m650 -313 c-3 -5 -38 -28 -77 -51 -39 -23 -110 -72 -157 -108
-63 -47 -95 -65 -114 -64 -15 1 -88 -24 -163 -57 l-135 -59 0 43 c0 41 2 44
33 50 34 7 148 42 182 56 11 4 48 19 82 32 71 28 253 134 253 148 0 20 -41 8
-190 -56 -122 -53 -302 -116 -320 -112 -10 2 -1 17 31 49 84 82 261 135 462
137 65 0 116 -3 113 -8z m-8 -76 c-6 -14 -15 -25 -20 -25 -13 0 -225 -209
-318 -314 -46 -53 -92 -98 -101 -101 -9 -3 -29 -1 -44 5 l-27 10 48 45 c27 24
116 109 198 189 82 80 152 146 156 146 4 0 27 16 51 35 54 43 74 46 57 10z
m-38 -120 c0 -30 -89 -164 -150 -226 -38 -39 -114 -89 -135 -89 -4 0 30 44 74
98 136 166 211 244 211 217z"/>
<path d="M3620 4166 c-305 -105 -616 -367 -795 -666 -99 -166 -100 -169 -100
-385 l0 -190 40 -80 c45 -91 113 -185 175 -241 100 -92 243 -133 354 -103 112
31 178 84 228 183 26 51 31 73 32 136 0 64 -4 85 -30 140 -17 36 -51 86 -76
112 -41 42 -155 107 -189 109 -8 0 11 7 41 15 299 80 559 396 605 735 7 52 -7
155 -27 196 -31 64 -138 81 -258 39z m148 -93 c-2 -11 -44 -36 -114 -68 -133
-60 -244 -119 -271 -144 -10 -10 -24 -20 -30 -22 -6 -2 -44 -36 -85 -74 -40
-39 -82 -77 -93 -85 -49 -36 -183 -193 -236 -275 -78 -120 -120 -178 -126
-172 -9 9 38 130 70 182 50 80 155 214 226 288 70 73 209 188 276 227 22 13
42 27 45 31 3 3 39 23 80 44 156 79 266 107 258 68z m30 -130 c-3 -31 -8 -38
-33 -46 -69 -22 -222 -91 -252 -114 -37 -27 -43 -53 -13 -53 20 0 90 26 176
65 65 30 100 35 96 15 -11 -58 -19 -64 -145 -103 -256 -80 -442 -178 -570
-299 -54 -51 -70 -78 -46 -78 6 0 46 24 88 53 161 112 378 219 511 252 36 9
73 18 83 21 16 5 16 2 -3 -35 -28 -52 -37 -59 -98 -71 -124 -23 -550 -227
-607 -290 -15 -17 -85 -30 -85 -16 0 2 21 38 46 80 45 75 186 226 277 298 23
18 71 63 107 99 63 65 128 109 240 164 64 31 211 94 223 95 5 0 7 -17 5 -37z
m-254 -504 c-26 -29 -111 -85 -160 -105 -21 -9 -52 -22 -69 -29 -39 -17 -58
-23 -155 -45 -19 -4 -47 -11 -62 -15 -18 -5 -28 -3 -28 4 0 18 324 170 420
197 68 19 76 18 54 -7z m-406 -339 c135 -33 183 -54 237 -101 37 -33 47 -64
18 -55 -10 3 -49 15 -88 27 -38 11 -124 44 -190 71 -203 86 -264 103 -205 57
26 -20 177 -107 220 -127 14 -6 61 -24 105 -40 44 -17 89 -33 100 -38 11 -4
40 -15 65 -24 39 -14 45 -20 48 -48 2 -18 1 -32 -3 -32 -7 0 -106 42 -191 80
-105 49 -124 37 -46 -28 26 -21 82 -58 124 -81 43 -24 81 -47 84 -53 4 -6 -6
-22 -20 -37 -27 -26 -27 -26 -44 -6 -10 11 -40 38 -67 60 -56 44 -72 60 -130
125 -21 25 -57 60 -80 78 -22 19 -51 43 -65 55 -33 28 -187 125 -211 132 -10
4 -19 11 -19 17 0 21 227 1 358 -32z m-208 -119 c41 -35 143 -133 225 -217
l151 -151 -34 -13 c-34 -12 -36 -11 -61 21 -14 19 -44 54 -67 79 -22 25 -54
61 -70 80 -39 47 -123 131 -211 211 -40 36 -73 73 -73 83 0 16 3 15 33 -5 17
-12 66 -52 107 -88z m-14 -111 c23 -25 64 -72 90 -105 27 -32 66 -77 87 -100
37 -40 45 -55 29 -55 -14 0 -126 76 -142 96 -76 93 -119 162 -135 214 -7 23
-7 24 11 10 10 -8 37 -35 60 -60z"/>
<path d="M2274 4105 c-35 -54 14 -123 71 -97 22 10 29 7 75 -35 27 -25 66 -72
86 -104 19 -33 41 -59 47 -59 61 1 24 85 -85 192 -43 42 -78 81 -78 86 0 19
-38 42 -68 42 -22 0 -36 -7 -48 -25z"/>
<path d="M2861 4103 c-24 -32 -24 -32 -74 -74 -56 -47 -127 -152 -127 -188 0
-47 42 -31 71 27 13 26 47 71 75 100 45 47 55 52 72 43 32 -17 51 -13 77 15
31 33 31 54 2 82 -32 31 -71 28 -96 -5z"/>
<path d="M2557 3717 c-22 -17 -30 -33 -33 -67 -6 -55 10 -87 54 -113 38 -23
68 -18 110 18 42 35 49 75 21 124 -35 64 -100 80 -152 38z"/>
<path d="M2598 3453 c-35 -41 -38 -61 -38 -295 1 -236 12 -366 37 -426 20 -48
38 -28 58 63 14 59 16 122 13 353 -3 259 -4 282 -22 301 -23 26 -29 26 -48 4z"/>
<path d="M3704 3125 c-4 -8 3 -39 14 -68 45 -117 47 -180 9 -312 -25 -91 -149
-238 -242 -289 -16 -9 -48 -27 -70 -41 -22 -13 -71 -37 -110 -52 -38 -15 -83
-36 -98 -48 -24 -17 -44 -20 -120 -20 -51 0 -114 2 -142 5 -46 5 -50 3 -53
-17 -6 -45 113 -73 306 -73 147 0 202 10 298 54 294 135 473 433 434 724 -14
104 -31 142 -65 142 -29 0 -30 -3 -10 -107 28 -149 14 -253 -53 -391 -70 -143
-222 -272 -409 -346 -96 -38 -193 -57 -193 -38 0 6 33 23 73 37 116 44 178 74
248 121 73 48 181 151 202 193 67 127 71 137 86 209 15 71 14 103 -4 189 -21
100 -43 143 -72 143 -13 0 -26 -7 -29 -15z"/>
<path d="M1070 1986 c0 -2 20 -45 45 -95 25 -50 45 -95 45 -99 0 -5 16 -42 36
-83 20 -41 44 -94 54 -119 10 -25 45 -97 77 -160 57 -114 58 -115 96 -118 l37
-3 41 88 c23 48 66 144 96 213 68 156 64 148 111 251 64 140 66 130 -19 127
l-73 -3 -78 -185 c-44 -102 -87 -205 -98 -230 l-19 -45 -16 40 c-9 22 -24 56
-32 75 -8 19 -19 44 -23 55 -11 28 -34 81 -62 145 -14 30 -31 71 -38 90 -22
57 -27 60 -106 60 -41 0 -74 -2 -74 -4z"/>
<path d="M1922 1653 l3 -338 63 -3 c49 -2 64 0 68 13 4 8 2 160 -2 338 l-9
322 -63 3 -62 3 2 -338z"/>
<path d="M2310 1650 l0 -340 153 0 c209 0 270 17 319 87 25 37 30 55 31 103 0
50 -4 65 -28 96 -15 20 -43 43 -63 51 l-35 14 32 20 c34 21 70 87 71 130 0 14
-12 50 -27 79 -22 43 -38 59 -73 77 -41 21 -59 22 -212 23 l-168 0 0 -340z
m295 211 c57 -12 71 -85 25 -131 -17 -17 -34 -20 -106 -20 l-87 0 7 38 c3 20
6 56 6 80 l0 42 63 -1 c34 -1 75 -4 92 -8z m35 -289 c29 -14 36 -23 38 -54 5
-64 -40 -88 -170 -88 l-58 0 0 80 0 80 78 0 c53 0 88 -5 112 -18z"/>
<path d="M3040 1650 l0 -340 55 0 c51 0 56 2 66 27 5 15 9 39 8 53 0 14 -1 60
0 103 l1 77 53 0 c28 0 62 -3 74 -6 29 -8 56 -75 47 -118 -4 -26 1 -44 26 -84
l32 -52 69 0 c77 0 83 8 54 64 -8 15 -15 49 -15 75 0 60 -14 109 -41 137 l-22
23 36 33 c62 59 72 166 24 254 -16 28 -37 47 -76 67 -53 26 -59 27 -223 27
l-168 0 0 -340z m316 204 c38 -18 50 -46 40 -98 -10 -54 -33 -66 -135 -73
l-91 -6 0 97 0 96 76 0 c49 0 88 -6 110 -16z"/>
<path d="M3894 1953 c-19 -45 -109 -240 -191 -413 -91 -191 -101 -214 -96
-222 2 -5 31 -8 64 -8 65 0 68 3 115 100 l19 40 145 0 145 0 33 -71 34 -71 68
4 c38 2 72 6 75 10 4 3 -16 53 -43 110 -27 56 -62 132 -78 168 -16 35 -65 137
-109 225 l-81 160 -42 3 c-41 3 -43 2 -58 -35z m132 -349 c6 -23 4 -24 -37
-24 -24 0 -61 -3 -81 -6 l-38 -7 19 54 c11 30 29 76 41 104 l23 49 33 -73 c19
-40 37 -83 40 -97z"/>
</g>
</svg>
